<svg width="202" height="74" viewBox="0 0 202 74" fill="none" xmlns="http://www.w3.org/2000/svg">
<path d="M95.9836 37.5496C95.9836 36.7771 95.3214 36.115 94.549 36.115H86.2175C86.8796 32.5838 89.9143 29.9354 93.611 29.9354C94.3835 29.9354 95.0456 29.2733 95.0456 28.5008C95.0456 27.7284 94.3835 27.0663 93.611 27.0663C90.8522 27.0663 88.2038 28.1698 86.2727 30.1009C84.2864 32.0872 83.238 34.6805 83.238 37.4392C83.238 40.198 84.3415 42.8464 86.2727 44.7775C88.259 46.7639 90.8522 47.8122 93.611 47.8122C94.3835 47.8122 95.0456 47.1501 95.0456 46.3776C95.0456 45.6052 94.3835 44.9431 93.611 44.9431C89.9694 44.9431 86.9348 42.3498 86.2175 38.929H94.549C95.3214 38.9841 95.9836 38.322 95.9836 37.5496Z" fill="#317CB8"/>
<path d="M140.289 37.5496C140.289 36.7771 139.627 36.115 138.855 36.115H130.523C131.186 32.5838 134.22 29.9354 137.917 29.9354C138.689 29.9354 139.351 29.2733 139.351 28.5008C139.351 27.7284 138.689 27.0663 137.917 27.0663C135.158 27.0663 132.51 28.1698 130.579 30.1009C128.592 32.0872 127.544 34.6805 127.544 37.4392C127.544 40.198 128.647 42.8464 130.579 44.7775C132.565 46.7639 135.158 47.8122 137.917 47.8122C138.689 47.8122 139.351 47.1501 139.351 46.3776C139.351 45.6052 138.689 44.9431 137.917 44.9431C134.275 44.9431 131.241 42.3498 130.523 38.929H138.855C139.683 38.9841 140.289 38.322 140.289 37.5496Z" fill="#E42823"/>
<path d="M43.6773 55.7023C42.8496 55.7023 42.022 55.3161 41.5254 54.5988C40.6978 53.4401 41.0288 51.7848 42.1875 51.0124L62.5472 37.053C62.6024 37.053 62.6576 36.9978 62.6576 36.8875C62.6576 36.7771 62.6024 36.722 62.5472 36.722L42.2427 22.6522C41.084 21.8246 40.753 20.2245 41.5806 19.0658C42.4082 17.9072 44.0083 17.5761 45.167 18.4037L65.5267 32.3631C67.0164 33.3563 67.8441 35.0115 67.8441 36.8323C67.8441 38.5979 66.9613 40.2532 65.5267 41.3015L45.167 55.2057C44.7256 55.5368 44.229 55.7023 43.6773 55.7023Z" fill="#317CB8"/>
<path d="M39.8702 36.7771C39.8702 35.3426 38.7115 34.1839 37.277 34.1839H22.1037C23.2624 27.7836 28.8903 22.9833 35.5665 22.9833C37.0011 22.9833 38.1598 21.8246 38.1598 20.3901C38.1598 18.9555 37.0011 17.7968 35.5665 17.7968C30.5456 17.7968 25.8005 19.7831 22.2141 23.3144C18.6277 26.9008 16.6965 31.6458 16.6965 36.6668C16.6965 41.6878 18.6828 46.4328 22.2141 50.0192C25.8005 53.6056 30.5456 55.5368 35.5665 55.5368C37.0011 55.5368 38.1598 54.3781 38.1598 52.9435C38.1598 51.509 37.0011 50.3503 35.5665 50.3503C28.9455 50.3503 23.4279 45.6052 22.1589 39.3704H37.277C38.7115 39.3704 39.8702 38.2117 39.8702 36.7771Z" fill="#E42823"/>
<path d="M113.529 39.8118H118.495C118.329 40.4187 118.109 40.9705 117.833 41.467C117.502 42.074 117.06 42.6809 116.509 43.1775C116.012 43.674 115.35 44.0603 114.633 44.3361C113.915 44.612 113.088 44.7224 112.15 44.7224C110.826 44.7224 109.667 44.3913 108.619 43.7844C107.57 43.1775 106.687 42.2947 106.081 41.1912C105.474 40.0876 105.143 38.8186 105.143 37.384C105.143 35.9495 105.474 34.6253 106.081 33.5769C106.687 32.4734 107.57 31.6458 108.619 31.0389C109.667 30.432 110.881 30.1009 112.15 30.1009C113.584 30.1009 114.798 30.3768 115.847 30.9285C116.454 31.2596 117.005 31.6458 117.447 32.1424C117.998 32.6941 118.826 32.7493 119.433 32.2527C120.04 31.7562 120.15 30.8182 119.599 30.2113C119.212 29.7698 118.826 29.3836 118.329 29.0526C117.502 28.4456 116.564 27.9491 115.516 27.618C114.467 27.287 113.364 27.1214 112.095 27.1214C110.66 27.1214 109.281 27.3973 108.067 27.8939C106.853 28.3905 105.749 29.1077 104.812 30.0457C103.874 30.9837 103.156 32.0872 102.66 33.3011C102.163 34.5701 101.887 35.9495 101.887 37.384C101.887 38.8186 102.163 40.2532 102.66 41.467C103.156 42.7361 103.874 43.8396 104.812 44.7224C105.749 45.6604 106.798 46.3776 108.067 46.8742C109.281 47.3708 110.66 47.6467 112.095 47.6467C113.584 47.6467 114.964 47.3708 116.178 46.819C117.391 46.2673 118.385 45.4948 119.212 44.5017C120.04 43.5085 120.647 42.405 121.088 41.1912C121.53 39.9773 121.695 38.6531 121.695 37.2737V36.9426H113.474C112.702 36.9426 112.039 37.5496 112.039 38.3772C112.095 39.1497 112.757 39.8118 113.529 39.8118Z" fill="#317CB8"/>
<path d="M158.331 28.6663C156.842 27.8387 155.076 27.3973 153.145 27.3973H147.021V47.426H153.145C155.076 47.426 156.787 46.9846 158.331 46.1569C159.821 45.3293 161.035 44.1154 161.863 42.6257C162.69 41.136 163.132 39.3704 163.132 37.3841C163.132 35.3977 162.69 33.6321 161.863 32.1424C161.035 30.7078 159.821 29.494 158.331 28.6663ZM159.711 40.3635C159.38 41.2463 158.883 41.9636 158.276 42.5705C157.669 43.1775 156.897 43.6189 156.069 43.9499C155.186 44.281 154.248 44.4465 153.2 44.4465H150.055V30.3768H153.2C154.248 30.3768 155.242 30.5423 156.069 30.8734C156.952 31.2044 157.669 31.6458 158.276 32.2527C158.883 32.8597 159.38 33.577 159.711 34.4598C160.042 35.3426 160.207 36.3357 160.207 37.3841C160.207 38.4876 160.042 39.4807 159.711 40.3635Z" fill="#317CB8"/>
<path d="M183.602 47.4811C184.816 47.4811 185.643 46.2121 185.147 45.0534L178.14 28.2249C177.588 27.0111 175.877 27.0111 175.326 28.2249L168.318 45.1086C167.822 46.2121 168.594 47.4811 169.808 47.4811C170.47 47.4811 171.077 47.0949 171.298 46.488L173.063 42.405H180.236L182.002 46.488C182.333 47.0949 182.94 47.4811 183.602 47.4811ZM179.353 39.5911H174.057L176.705 32.7493L179.353 39.5911Z" fill="#317CB8"/>
</svg>
